<?xml version="1.0" standalone="no"?><!DOCTYPE svg PUBLIC "-//W3C//DTD SVG 1.1//EN" "http://www.w3.org/Graphics/SVG/1.1/DTD/svg11.dtd"><svg class="icon" width="200px" height="199.80px" viewBox="0 0 1025 1024" version="1.1" xmlns="http://www.w3.org/2000/svg"><path fill="#f4ea2a" d="M784.16441 645.6c-3.8 3.7-5.5 9-4.6 14.2l55.8 325.2c1.8 10.3-6.4 18.7-15.8 18.7-2.5 0-5-0.6-7.5-1.9l-291.9-153.5c-2.3-1.2-4.9-1.8-7.5-1.8s-5.1 0.6-7.5 1.8l-292.1 153.5c-2.5 1.3-5 1.9-7.5 1.9-9.3 0-17.5-8.4-15.8-18.7l55.9-325.2c0.9-5.2-0.8-10.5-4.6-14.2L4.86441 415.3c-9.5-9.3-4.3-25.4 8.8-27.3l326.5-47.5c5.2-0.8 9.7-4 12-8.8l146-295.9c2.9-5.9 8.6-8.9 14.3-8.9s11.4 3 14.3 8.9l146 295.9c2.3 4.7 6.8 8 12 8.8l326.9 47.5c13.1 1.9 18.4 18 8.9 27.3l-236.4 230.3z"  /></svg>