<?xml version="1.0" standalone="no"?><!DOCTYPE svg PUBLIC "-//W3C//DTD SVG 1.1//EN" "http://www.w3.org/Graphics/SVG/1.1/DTD/svg11.dtd"><svg t="1649143227685" class="icon" viewBox="0 0 1024 1024" version="1.1" xmlns="http://www.w3.org/2000/svg" p-id="4088" xmlns:xlink="http://www.w3.org/1999/xlink" width="200" height="200"><defs><style type="text/css">@font-face { font-family: feedback-iconfont; src: url("//at.alicdn.com/t/font_1031158_u69w8yhxdu.woff2?t=1630033759944") format("woff2"), url("//at.alicdn.com/t/font_1031158_u69w8yhxdu.woff?t=1630033759944") format("woff"), url("//at.alicdn.com/t/font_1031158_u69w8yhxdu.ttf?t=1630033759944") format("truetype"); }
</style></defs><path d="M512.330936 956.628798c-245.847116 0-445.150388-199.711995-445.150388-446.074961 0-246.35757 199.303272-446.074961 445.150388-446.074961 245.851513 0 445.150388 199.717192 445.150388 446.074961C957.481324 756.915803 758.183248 956.628798 512.330936 956.628798zM762.171144 379.680768l-31.226828-30.636229c-17.249905-16.918929-45.213545-16.918929-62.459852 0L449.871083 563.493943l-93.690278-91.908886c-17.249905-16.918929-45.213545-16.918929-62.459852 0l-31.230426 30.636229c-17.249905 16.918929-17.249905 44.352729 0 61.272657l124.917106 122.53632c0 0.003598 0 0.003598 0 0.003598l31.230426 30.636229c17.249905 16.918929 45.213545 16.918929 62.46345 0l281.068036-275.718663c17.250704-16.923326 17.250704-44.35173 0.000799-61.271658L762.171144 379.680768z" p-id="4089" fill="#f4ea2a"></path></svg>